# xmcd CD database file
#
# Track frame offsets:
#	150
#	19275
#	36257
#
# Disc length: 735 seconds
#
# Revision: 1
# Processed by: cddbd v1.5PL3 Copyright (c) Steve Scherf et al.
# Submitted via: CDex 1.50
#
DISCID=1f02dd03
DTITLE=岸本早未 - 愛する君が傍にいれば
DYEAR=2003
DGENRE=JPop
TTITLE0=愛する君が傍にいれば
TTITLE1=会いたくて
TTITLE2=愛する君が傍にいれば(Instrumental)
EXTD=YEAR: 2003
EXTT0=
EXTT1=
EXTT2=
PLAYORDER=
